<svg id="Capa_1" data-name="Capa 1" xmlns="http://www.w3.org/2000/svg" viewBox="0 0 968.56 309.51"><defs><style>.cls-1{fill:#91cb3e;}.cls-2{fill:#fff;}.cls-3{fill:#0a2e36;}.cls-4{isolation:isolate;}.cls-5{opacity:0;mix-blend-mode:multiply;}</style></defs><title>RocketSelectCode</title><path class="cls-1" d="M359.21,38.28,399,46.18l-8.57,6.36a197.64,197.64,0,0,0-26.89,24.14l-1.83,1.91-52.63-9.78Z"/><path class="cls-1" d="M390.49,128.68l2.48-.81a184.11,184.11,0,0,0,33.21-13l9.5-4.77-12.91,41.18L373,182Z"/><path class="cls-2" d="M448.93,71.58a15.67,15.67,0,0,1-9.21-7.13c-4.11-7.26-1.56-17.14,5.68-22,7.12-4.36,16.6-1.91,21.11,5.45s1.56,17.14-5.68,22h0C456.64,72.12,452.7,73,448.93,71.58Z"/><path class="cls-1" d="M349.09,95.05l2-2.38c53.06-73.88,136.87-78,161.12-77.57l7-.17L516,21.77C504.74,44.27,460.54,119,373.54,131.94l-3,.68Zm107.72-54c-8.23-2.13-16.37,3-18.57,11.52s2.53,17,10.67,19.07,16.37-3,18.57-11.52A16.75,16.75,0,0,0,466,48.3C463.72,44.72,460.68,42.08,456.81,41.08Z"/><path class="cls-3" d="M519.28,10.74c-42.16-2.32-84.11,9-121.07,30.9l-38.53-7.58a4.88,4.88,0,0,0-3.35.58L306.56,65.37a4.6,4.6,0,0,0-1.63,6.3,4.16,4.16,0,0,0,2.65,2.13l.39.1,44.76,8.25A92.11,92.11,0,0,0,345,92.55c-.86,1.74-1.31,3.48-.4,5.16l21.1,37.47a3.83,3.83,0,0,0,4.52,2.09c4.35-.83,8.67-1.58,13-2.42l-14.93,45.41a5,5,0,0,0,2.59,5.94,5.26,5.26,0,0,0,3.84-.45L424.49,155a4.28,4.28,0,0,0,2.06-2.78l12.56-39.82c36.21-22.66,65-55.91,83.86-95.15a4.83,4.83,0,0,0-2.48-6.43A2.19,2.19,0,0,1,519.28,10.74ZM322,66.46l37.72-23.3,27.95,5.77a198.51,198.51,0,0,0-27.5,24.5ZM419.06,148l-37.73,23.3,12.92-39.21A151.35,151.35,0,0,0,428,118.86Zm-46.14-20.49-18.25-32.5c52-71.78,134-75.89,157.19-75.18C500.83,41.4,458.08,114.53,372.92,127.55Z"/><path class="cls-3" d="M277.74,134.56a4.07,4.07,0,0,0,3.35-.58L332,102.61a4.59,4.59,0,0,0,1.63-6.3,4.08,4.08,0,0,0-6-1.55h0l-50.74,30.9c-2.22,1.39-3.28,3.9-2,6.19A4,4,0,0,0,277.74,134.56Z"/><path class="cls-3" d="M324.37,135.56a4.08,4.08,0,0,0-6-1.55l-50.86,31.37a5.31,5.31,0,0,0-3.37,5.85c.29,2.45,3.17,3.71,5.52,3.39.52-.39,1.49-.55,2.22-1.39l50.87-31.38a4.59,4.59,0,0,0,1.62-6.29Z"/><path class="cls-3" d="M355.61,144.56l-50.86,31.37c-2.22,1.39-3.28,3.91-2,6.2s3.78,3.35,5.88,2l.51-.38L360,152.4a4.66,4.66,0,0,0,1.24-6.39,4.53,4.53,0,0,0-5.62-1.45Z"/><path class="cls-3" d="M447.66,76.52c10.74,2.77,21.3-4.11,24.08-14.85,2.9-11.24-3.52-22-13.88-24.66-10.75-2.77-21.3,4.1-24.08,14.85a20.59,20.59,0,0,0,2,15.39A19.54,19.54,0,0,0,447.66,76.52Zm-.55-29.89a10.55,10.55,0,0,1,15.11,3.9,11.51,11.51,0,0,1-4.05,15.69h0a11.24,11.24,0,0,1-15.11-3.91,11.41,11.41,0,0,1,4.05-15.68Z"/><path class="cls-3" d="M71.58,262.19l7.5-8.5c7.1,7.3,16.9,12.1,27.1,12.1,12.9,0,20.5-6.4,20.5-15.8,0-10-7.1-13.1-16.4-17.1l-14.1-6.2c-9.2-3.9-19.9-10.8-19.9-25.1,0-14.9,13.1-25.9,30.9-25.9a40.64,40.64,0,0,1,28.9,12.1l-6.6,8c-6-5.6-13.2-9.1-22.3-9.1-11,0-18.3,5.5-18.3,14.2,0,9.4,8.6,12.9,16.3,16.1l14,6c11.4,4.8,20.2,11.6,20.2,26.1,0,15.4-12.8,27.7-33.5,27.7A47.75,47.75,0,0,1,71.58,262.19Z"/><path class="cls-3" d="M152.08,238.89c0-23.5,16-38,32.7-38,18.6,0,29,13.2,29,33.9a33.36,33.36,0,0,1-.6,6.9h-49c.9,15.3,10.3,25.2,24.2,25.2a31.47,31.47,0,0,0,18.1-5.8l4.4,8c-6.4,4.1-14.1,7.5-24,7.5C167.48,276.69,152.08,262.59,152.08,238.89Zm50.8-5.9c0-14.5-6.6-22.3-17.9-22.3-10.2,0-19.4,8.1-20.9,22.3Z"/><path class="cls-3" d="M231.58,260.39v-91.3h12.3v92.2c0,3.7,1.6,5.2,3.4,5.2a10.73,10.73,0,0,0,2.7-.3l1.7,9.3a20.64,20.64,0,0,1-7.1,1.1C235.38,276.69,231.58,270.89,231.58,260.39Z"/><path class="cls-3" d="M264.38,238.89c0-23.5,16-38,32.7-38,18.6,0,29,13.2,29,33.9a33.36,33.36,0,0,1-.6,6.9h-49c.9,15.3,10.3,25.2,24.2,25.2a31.47,31.47,0,0,0,18.1-5.8l4.4,8c-6.4,4.1-14.1,7.5-24,7.5C279.78,276.69,264.38,262.59,264.38,238.89Zm50.8-5.9c0-14.5-6.6-22.3-17.9-22.3-10.2,0-19.4,8.1-20.9,22.3Z"/><path class="cls-3" d="M338.48,238.89c0-24.1,16.4-38,35-38,9.5,0,16.2,3.9,21.3,8.5l-6.3,8.1c-4.2-3.8-8.7-6.4-14.4-6.4-13.2,0-22.8,11.3-22.8,27.8s9.1,27.6,22.5,27.6c6.6,0,12.5-3.2,17.1-7.2l5.3,8.2a35.39,35.39,0,0,1-23.5,9.2C353.28,276.69,338.48,262.79,338.48,238.89Z"/><path class="cls-3" d="M414.28,252.59v-39.9h-10.8v-9.2l11.4-.7,1.5-20.2h10.3v20.1h19.7v10h-19.7v40.1c0,8.8,2.9,13.9,11.2,13.9a26.39,26.39,0,0,0,8.3-1.9l2.4,9.2a43.8,43.8,0,0,1-13.5,2.7C419.48,276.69,414.28,267,414.28,252.59Z"/><rect class="cls-3" x="458.08" y="151.69" width="395" height="145"/><g class="cls-4"><g class="cls-5"><path d="M553.36,189.22a27.07,27.07,0,0,0-5.63-1.56,46.07,46.07,0,0,0-7.43-.52,34,34,0,0,0-12.08,2.23,26.75,26.75,0,0,0-10.51,7.28,37.28,37.28,0,0,0-7.35,13.22q-2.79,8.16-2.78,20a63.36,63.36,0,0,0,2.48,18.72A38.5,38.5,0,0,0,517,262a28,28,0,0,0,10.66,8,34.88,34.88,0,0,0,13.88,2.67,37.16,37.16,0,0,0,7.28-.67,31.72,31.72,0,0,0,6.23-1.86V255.32h11.07v20.05l.15.3a39.22,39.22,0,0,1-11.37,5.72,53.37,53.37,0,0,1-16.76,2.3,46.62,46.62,0,0,1-17.43-3.19,36.39,36.39,0,0,1-13.84-9.73,45.12,45.12,0,0,1-9.05-16.71q-3.22-10.17-3.22-24.14,0-14.55,3.59-24.73a46.17,46.17,0,0,1,9.73-16.64,36.85,36.85,0,0,1,14.29-9.43,50.49,50.49,0,0,1,17.43-3c3.39,0,6.33.13,8.83.37a52.72,52.72,0,0,1,6.58,1,25.31,25.31,0,0,1,5,1.71,38.37,38.37,0,0,1,4.27,2.38h.15v23.46H553.36Z"/><path d="M583.14,244.77q0-18,9.42-28.44t26.93-10.47a39.56,39.56,0,0,1,16.24,3,31.88,31.88,0,0,1,11.3,8.25,33.41,33.41,0,0,1,6.65,12.32,52.25,52.25,0,0,1,2.17,15.3,51.07,51.07,0,0,1-2.39,16.12,33.45,33.45,0,0,1-7,12.25,31.09,31.09,0,0,1-11.45,7.8,41.14,41.14,0,0,1-15.49,2.75,39.78,39.78,0,0,1-16.15-3A31.75,31.75,0,0,1,592,272.4a33.37,33.37,0,0,1-6.65-12.33A52.15,52.15,0,0,1,583.14,244.77Zm12.42,0a44,44,0,0,0,1.26,10.4,28.46,28.46,0,0,0,4.11,9.36,21.11,21.11,0,0,0,7.38,6.68,22.5,22.5,0,0,0,11.11,2.53q11.93,0,18-7.35t6-21.62a43.24,43.24,0,0,0-1.27-10.47A27.49,27.49,0,0,0,638,225a22.14,22.14,0,0,0-7.46-6.69,22.64,22.64,0,0,0-11.11-2.52q-11.94,0-17.9,7.28T595.56,244.77Z"/><path d="M716.45,177.93h24.39v78.58c0,.89,0,2,.15,3.34s.22,2.75.37,4.23.32,2.95.52,4.39.4,2.69.6,3.78h10v9.66h-20L731,270.47h-.59a26.21,26.21,0,0,1-9.78,9.43,29.18,29.18,0,0,1-15,3.79q-16.86,0-24.85-9.43t-8-29.34a47,47,0,0,1,2.69-16.56,32,32,0,0,1,7.68-12,33.2,33.2,0,0,1,12-7.35,45.87,45.87,0,0,1,15.67-2.53c2.09,0,4,.05,5.6.15s3.16.25,4.55.45a32.41,32.41,0,0,1,3.95.81L729,209v-21.1H716.45Zm-8.91,95.81q9.11,0,14.32-4.68T729,255V220.56a23.48,23.48,0,0,0-7.38-3.27,45.68,45.68,0,0,0-10.81-1q-11.94,0-18.79,6.91t-6.86,21.76a54.53,54.53,0,0,0,1.12,11.37,25.5,25.5,0,0,0,3.72,9.13,18.22,18.22,0,0,0,6.94,6.09A22.83,22.83,0,0,0,707.54,273.74Z"/><path d="M833.3,272.55a37.1,37.1,0,0,1-6.36,4.46,47.47,47.47,0,0,1-8,3.56,58.77,58.77,0,0,1-9.05,2.3,55.07,55.07,0,0,1-9.5.82,42.53,42.53,0,0,1-15.86-2.75A30.56,30.56,0,0,1,773,273.07a34.38,34.38,0,0,1-7-12.25,50.45,50.45,0,0,1-2.39-16,48.86,48.86,0,0,1,2.62-16.63A32.22,32.22,0,0,1,773.75,216a32.84,32.84,0,0,1,12-7.5,45.14,45.14,0,0,1,15.71-2.6,48,48,0,0,1,12.42,1.63,24.59,24.59,0,0,1,10.85,6.17A29.41,29.41,0,0,1,832,226.13q2.53,8,1.79,20.57H776q0,13.38,7.24,20t19.32,6.61a33.63,33.63,0,0,0,8-1,66.42,66.42,0,0,0,7.54-2.3,39.42,39.42,0,0,0,6.34-3,26.73,26.73,0,0,0,4.26-3Zm-31.5-56.89a40.58,40.58,0,0,0-9.32,1,21.29,21.29,0,0,0-7.76,3.49,19.2,19.2,0,0,0-5.52,6.39,25.43,25.43,0,0,0-2.75,9.73h46.38q-.75-9.81-6.34-15.23T801.8,215.66Z"/></g><path class="cls-1" d="M546.36,182.22a27.07,27.07,0,0,0-5.63-1.56,46.07,46.07,0,0,0-7.43-.52,34,34,0,0,0-12.08,2.23,26.75,26.75,0,0,0-10.51,7.28,37.28,37.28,0,0,0-7.35,13.22q-2.79,8.16-2.78,20a63.36,63.36,0,0,0,2.48,18.72A38.5,38.5,0,0,0,510,255a28,28,0,0,0,10.66,8,34.88,34.88,0,0,0,13.88,2.67,37.16,37.16,0,0,0,7.28-.67,31.72,31.72,0,0,0,6.23-1.86V248.32h11.07v20.05l.15.3a39.22,39.22,0,0,1-11.37,5.72,53.37,53.37,0,0,1-16.76,2.3,46.62,46.62,0,0,1-17.43-3.19,36.39,36.39,0,0,1-13.84-9.73,45.12,45.12,0,0,1-9.05-16.71q-3.22-10.17-3.22-24.14,0-14.55,3.59-24.73a46.17,46.17,0,0,1,9.73-16.64,36.85,36.85,0,0,1,14.29-9.43,50.49,50.49,0,0,1,17.43-3c3.39,0,6.33.13,8.83.37a52.72,52.72,0,0,1,6.58,1,25.31,25.31,0,0,1,5,1.71,38.37,38.37,0,0,1,4.27,2.38h.15v23.46H546.36Z"/><path class="cls-1" d="M576.14,237.77q0-18,9.42-28.44t26.93-10.47a39.56,39.56,0,0,1,16.24,3,31.88,31.88,0,0,1,11.3,8.25,33.41,33.41,0,0,1,6.65,12.32,52.25,52.25,0,0,1,2.17,15.3,51.07,51.07,0,0,1-2.39,16.12,33.45,33.45,0,0,1-7,12.25,31.09,31.09,0,0,1-11.45,7.8,41.14,41.14,0,0,1-15.49,2.75,39.78,39.78,0,0,1-16.15-3A31.75,31.75,0,0,1,585,265.4a33.37,33.37,0,0,1-6.65-12.33A52.15,52.15,0,0,1,576.14,237.77Zm12.42,0a44,44,0,0,0,1.26,10.4,28.46,28.46,0,0,0,4.11,9.36,21.11,21.11,0,0,0,7.38,6.68,22.5,22.5,0,0,0,11.11,2.53q11.93,0,18-7.35t6-21.62a43.24,43.24,0,0,0-1.27-10.47A27.49,27.49,0,0,0,631,218a22.14,22.14,0,0,0-7.46-6.69,22.64,22.64,0,0,0-11.11-2.52q-11.94,0-17.9,7.28T588.56,237.77Z"/><path class="cls-1" d="M709.45,170.93h24.39v78.58c0,.89,0,2,.15,3.34s.22,2.75.37,4.23.32,2.95.52,4.39.4,2.69.6,3.78h10v9.66h-20L724,263.47h-.59a26.21,26.21,0,0,1-9.78,9.43,29.18,29.18,0,0,1-15,3.79q-16.86,0-24.85-9.43t-8-29.34a47,47,0,0,1,2.69-16.56,32,32,0,0,1,7.68-12,33.2,33.2,0,0,1,12-7.35,45.87,45.87,0,0,1,15.67-2.53c2.09,0,4,.05,5.6.15s3.16.25,4.55.45a32.41,32.41,0,0,1,3.95.81L722,202v-21.1H709.45Zm-8.91,95.81q9.11,0,14.32-4.68T722,248V213.56a23.48,23.48,0,0,0-7.38-3.27,45.68,45.68,0,0,0-10.81-1q-11.94,0-18.79,6.91t-6.86,21.76a54.53,54.53,0,0,0,1.12,11.37,25.5,25.5,0,0,0,3.72,9.13,18.22,18.22,0,0,0,6.94,6.09A22.83,22.83,0,0,0,700.54,266.74Z"/><path class="cls-1" d="M826.3,265.55a37.1,37.1,0,0,1-6.36,4.46,47.47,47.47,0,0,1-8,3.56,58.77,58.77,0,0,1-9.05,2.3,55.07,55.07,0,0,1-9.5.82,42.53,42.53,0,0,1-15.86-2.75A30.56,30.56,0,0,1,766,266.07a34.38,34.38,0,0,1-7-12.25,50.45,50.45,0,0,1-2.39-16,48.86,48.86,0,0,1,2.62-16.63A32.22,32.22,0,0,1,766.75,209a32.84,32.84,0,0,1,12-7.5,45.14,45.14,0,0,1,15.71-2.6,48,48,0,0,1,12.42,1.63,24.59,24.59,0,0,1,10.85,6.17A29.41,29.41,0,0,1,825,219.13q2.53,8,1.79,20.57H769q0,13.38,7.24,20t19.32,6.61a33.63,33.63,0,0,0,8-1,66.42,66.42,0,0,0,7.54-2.3,39.42,39.42,0,0,0,6.34-3,26.73,26.73,0,0,0,4.26-3Zm-31.5-56.89a40.58,40.58,0,0,0-9.32,1,21.29,21.29,0,0,0-7.76,3.49,19.2,19.2,0,0,0-5.52,6.39,25.43,25.43,0,0,0-2.75,9.73h46.38q-.75-9.81-6.34-15.23T794.8,208.66Z"/></g><path class="cls-3" d="M6.92,234V223.44l48.89-31.86v13.58L19.48,228.45V229l36.33,23.29v13.59Z"/><path class="cls-3" d="M900,168.75h12.87L870.09,281.86H857.22Z"/><path class="cls-3" d="M912.26,256.39,949,232.52V232l-36.71-23.88V194.19l49.39,32.66v10.81l-49.39,32.66Z"/></svg>